<svg viewBox="-16 -32 880 192" width="880" height="192" xmlns="http://www.w3.org/2000/svg"><style>@keyframes c0{6.68%{fill:var(--c1)}6.7%,to{fill:var(--ce)}}@keyframes c1{61.86%{fill:var(--c2)}61.88%,to{fill:var(--ce)}}@keyframes c2{10.36%{fill:var(--c1)}10.38%,to{fill:var(--ce)}}@keyframes c3{16.04%{fill:var(--c1)}16.06%,to{fill:var(--ce)}}@keyframes c4{55.84%{fill:var(--c2)}55.86%,to{fill:var(--ce)}}@keyframes c5{17.05%{fill:var(--c1)}17.07%,to{fill:var(--ce)}}@keyframes c6{18.05%{fill:var(--c1)}18.07%,to{fill:var(--ce)}}@keyframes c7{38.79%{fill:var(--c1)}38.81%,to{fill:var(--ce)}}@keyframes c8{78.59%{fill:var(--c4)}78.61%,to{fill:var(--ce)}}@keyframes c9{42.8%{fill:var(--c2)}42.82%,to{fill:var(--ce)}}@keyframes ca{19.05%{fill:var(--c1)}19.07%,to{fill:var(--ce)}}@keyframes cb{20.06%{fill:var(--c1)}20.08%,to{fill:var(--ce)}}@keyframes cc{20.73%{fill:var(--c1)}20.75%,to{fill:var(--ce)}}@keyframes cd{42.13%{fill:var(--c2)}42.15%,to{fill:var(--ce)}}@keyframes ce{41.13%{fill:var(--c1)}41.15%,to{fill:var(--ce)}}@keyframes cf{19.39%{fill:var(--c1)}19.41%,to{fill:var(--ce)}}@keyframes cg{21.06%{fill:var(--c1)}21.08%,to{fill:var(--ce)}}@keyframes ch{44.81%{fill:var(--c2)}44.83%,to{fill:var(--ce)}}@keyframes ci{34.44%{fill:var(--c1)}34.46%,to{fill:var(--ce)}}@keyframes cj{41.46%{fill:var(--c2)}41.48%,to{fill:var(--ce)}}@keyframes ck{79.92%{fill:var(--c4)}79.94%,to{fill:var(--ce)}}@keyframes cl{35.78%{fill:var(--c1)}35.8%,to{fill:var(--ce)}}@keyframes cm{22.73%{fill:var(--c1)}22.75%,to{fill:var(--ce)}}@keyframes cn{22.4%{fill:var(--c1)}22.42%,to{fill:var(--ce)}}@keyframes co{33.77%{fill:var(--c1)}33.79%,to{fill:var(--ce)}}@keyframes cp{33.43%{fill:var(--c1)}33.45%,to{fill:var(--ce)}}@keyframes cq{23.07%{fill:var(--c1)}23.09%,to{fill:var(--ce)}}@keyframes cr{81.6%{fill:var(--c4)}81.62%,to{fill:var(--ce)}}@keyframes cs{81.93%{fill:var(--c4)}81.95%,to{fill:var(--ce)}}@keyframes ct{76.91%{fill:var(--c4)}76.93%,to{fill:var(--ce)}}@keyframes cu{47.82%{fill:var(--c2)}47.84%,to{fill:var(--ce)}}@keyframes cv{23.4%{fill:var(--c1)}23.42%,to{fill:var(--ce)}}@keyframes cw{47.15%{fill:var(--c2)}47.17%,to{fill:var(--ce)}}@keyframes cx{30.09%{fill:var(--c1)}30.11%,to{fill:var(--ce)}}@keyframes cy{30.76%{fill:var(--c1)}30.78%,to{fill:var(--ce)}}@keyframes cz{26.08%{fill:var(--c1)}26.1%,to{fill:var(--ce)}}@keyframes c10{29.42%{fill:var(--c1)}29.44%,to{fill:var(--ce)}}@keyframes c11{25.74%{fill:var(--c1)}25.76%,to{fill:var(--ce)}}@keyframes c12{24.74%{fill:var(--c1)}24.76%,to{fill:var(--ce)}}@keyframes c13{24.4%{fill:var(--c1)}24.42%,to{fill:var(--ce)}}@keyframes c14{27.41%{fill:var(--c1)}27.43%,to{fill:var(--ce)}}@keyframes c15{27.75%{fill:var(--c1)}27.77%,to{fill:var(--ce)}}@keyframes c16{25.07%{fill:var(--c1)}25.09%,to{fill:var(--ce)}}@keyframes c17{49.82%{fill:var(--c2)}49.84%,to{fill:var(--ce)}}@keyframes c18{28.08%{fill:var(--c1)}28.1%,to{fill:var(--ce)}}@keyframes c19{75.24%{fill:var(--c3)}75.26%,to{fill:var(--ce)}}@keyframes c1a{74.91%{fill:var(--c3)}74.93%,to{fill:var(--ce)}}@keyframes u0{6.68%{transform:scale(0,1)}10.36%,6.7%{transform:scale(.03,1)}10.38%,16.04%{transform:scale(.06,1)}16.06%,17.05%{transform:scale(.1,1)}17.07%,18.05%{transform:scale(.13,1)}18.07%,19.05%{transform:scale(.16,1)}19.07%,19.39%{transform:scale(.19,1)}19.41%,20.06%{transform:scale(.23,1)}20.08%,20.73%{transform:scale(.26,1)}20.75%,21.06%{transform:scale(.29,1)}21.08%,22.4%{transform:scale(.32,1)}22.42%,22.73%{transform:scale(.35,1)}22.75%,23.07%{transform:scale(.39,1)}23.09%,23.4%{transform:scale(.42,1)}23.42%,24.4%{transform:scale(.45,1)}24.42%,24.74%{transform:scale(.48,1)}24.76%,25.07%{transform:scale(.52,1)}25.09%,25.74%{transform:scale(.55,1)}25.76%,26.08%{transform:scale(.58,1)}26.1%,27.41%{transform:scale(.61,1)}27.43%,27.75%{transform:scale(.65,1)}27.77%,28.08%{transform:scale(.68,1)}28.1%,29.42%{transform:scale(.71,1)}29.44%,30.09%{transform:scale(.74,1)}30.11%,30.76%{transform:scale(.77,1)}30.78%,33.43%{transform:scale(.81,1)}33.45%,33.77%{transform:scale(.84,1)}33.79%,34.44%{transform:scale(.87,1)}34.46%,35.78%{transform:scale(.9,1)}35.8%,38.79%{transform:scale(.94,1)}38.81%,41.13%{transform:scale(.97,1)}41.15%,to{transform:scale(1,1)}}@keyframes u1{41.46%{transform:scale(0,1)}41.48%,42.13%{transform:scale(.11,1)}42.15%,42.8%{transform:scale(.22,1)}42.82%,44.81%{transform:scale(.33,1)}44.83%,47.15%{transform:scale(.44,1)}47.17%,47.82%{transform:scale(.56,1)}47.84%,49.82%{transform:scale(.67,1)}49.84%,55.84%{transform:scale(.78,1)}55.86%,61.86%{transform:scale(.89,1)}61.88%,to{transform:scale(1,1)}}@keyframes u2{74.91%{transform:scale(0,1)}74.93%,75.24%{transform:scale(.5,1)}75.26%,to{transform:scale(1,1)}}@keyframes u3{76.91%{transform:scale(0,1)}76.93%,78.59%{transform:scale(.2,1)}78.61%,79.92%{transform:scale(.4,1)}79.94%,81.6%{transform:scale(.6,1)}81.62%,81.93%{transform:scale(.8,1)}81.95%,to{transform:scale(1,1)}}@keyframes s0{0%,99.67%{transform:translate(0,-16px)}.33%{transform:translate(0,0)}4.68%{transform:translate(208px,0)}6.69%{transform:translate(208px,96px)}8.03%{transform:translate(272px,96px)}8.36%{transform:translate(272px,80px)}9.03%{transform:translate(304px,80px)}10.37%{transform:translate(304px,16px)}15.72%{transform:translate(560px,16px)}16.05%{transform:translate(560px,0)}16.72%{transform:translate(592px,0)}17.06%{transform:translate(592px,16px)}17.73%{transform:translate(624px,16px)}18.06%{transform:translate(624px,32px)}19.4%,40.8%,43.48%{transform:translate(688px,32px)}19.73%{transform:translate(688px,48px)}20.07%{transform:translate(672px,48px)}20.74%{transform:translate(672px,80px)}21.74%,71.24%{transform:translate(720px,80px)}22.74%{transform:translate(720px,32px)}24.41%{transform:translate(800px,32px)}24.75%,26.76%{transform:translate(800px,16px)}25.08%,49.16%{transform:translate(816px,16px)}25.42%{transform:translate(816px,0)}26.09%{transform:translate(784px,0)}26.42%{transform:translate(784px,16px)}27.76%,29.1%{transform:translate(800px,64px)}28.09%{transform:translate(816px,64px)}28.43%{transform:translate(816px,80px)}28.76%{transform:translate(800px,80px)}30.1%,46.82%{transform:translate(752px,64px)}30.77%{transform:translate(752px,96px)}31.1%{transform:translate(768px,96px)}32.44%{transform:translate(768px,32px)}33.11%,80.6%{transform:translate(736px,32px)}33.78%{transform:translate(736px,0)}34.45%,41.81%{transform:translate(704px,0)}34.78%{transform:translate(704px,-16px)}35.12%{transform:translate(720px,-16px)}36.45%{transform:translate(720px,48px)}37.79%{transform:translate(656px,48px)}38.8%{transform:translate(656px,96px)}39.13%{transform:translate(672px,96px)}40.47%,43.14%{transform:translate(672px,32px)}41.14%,42.47%{transform:translate(688px,16px)}41.47%,79.6%{transform:translate(704px,16px)}42.14%{transform:translate(688px,0)}42.81%,78.93%{transform:translate(672px,16px)}44.82%{transform:translate(688px,96px)}45.48%{transform:translate(720px,96px)}46.15%,71.57%{transform:translate(720px,64px)}47.83%{transform:translate(752px,16px)}49.83%{transform:translate(816px,48px)}54.85%{transform:translate(576px,48px)}55.85%{transform:translate(576px,96px)}61.87%{transform:translate(288px,96px)}62.21%{transform:translate(288px,80px)}73.91%{transform:translate(832px,64px)}75.25%{transform:translate(832px,0)}78.6%{transform:translate(672px,0)}79.93%{transform:translate(704px,32px)}81.94%{transform:translate(736px,96px)}93.98%{transform:translate(160px,96px)}94.31%{transform:translate(160px,80px)}94.98%{transform:translate(128px,80px)}95.99%{transform:translate(128px,32px)}96.32%{transform:translate(112px,32px)}97.32%{transform:translate(112px,-16px)}}@keyframes s1{0%,99.67%{transform:translate(16px,-16px)}.33%{transform:translate(0,-16px)}.67%{transform:translate(0,0)}5.02%{transform:translate(208px,0)}7.02%{transform:translate(208px,96px)}8.36%{transform:translate(272px,96px)}8.7%{transform:translate(272px,80px)}9.36%{transform:translate(304px,80px)}10.7%{transform:translate(304px,16px)}16.05%{transform:translate(560px,16px)}16.39%{transform:translate(560px,0)}17.06%{transform:translate(592px,0)}17.39%{transform:translate(592px,16px)}18.06%{transform:translate(624px,16px)}18.39%{transform:translate(624px,32px)}19.73%,41.14%,43.81%{transform:translate(688px,32px)}20.07%{transform:translate(688px,48px)}20.4%{transform:translate(672px,48px)}21.07%{transform:translate(672px,80px)}22.07%,71.57%{transform:translate(720px,80px)}23.08%{transform:translate(720px,32px)}24.75%{transform:translate(800px,32px)}25.08%,27.09%{transform:translate(800px,16px)}25.42%,49.5%{transform:translate(816px,16px)}25.75%{transform:translate(816px,0)}26.42%{transform:translate(784px,0)}26.76%{transform:translate(784px,16px)}28.09%,29.43%{transform:translate(800px,64px)}28.43%{transform:translate(816px,64px)}28.76%{transform:translate(816px,80px)}29.1%{transform:translate(800px,80px)}30.43%,47.16%{transform:translate(752px,64px)}31.1%{transform:translate(752px,96px)}31.44%{transform:translate(768px,96px)}32.78%{transform:translate(768px,32px)}33.44%,80.94%{transform:translate(736px,32px)}34.11%{transform:translate(736px,0)}34.78%,42.14%{transform:translate(704px,0)}35.12%{transform:translate(704px,-16px)}35.45%{transform:translate(720px,-16px)}36.79%{transform:translate(720px,48px)}38.13%{transform:translate(656px,48px)}39.13%{transform:translate(656px,96px)}39.46%{transform:translate(672px,96px)}40.8%,43.48%{transform:translate(672px,32px)}41.47%,42.81%{transform:translate(688px,16px)}41.81%,79.93%{transform:translate(704px,16px)}42.47%{transform:translate(688px,0)}43.14%,79.26%{transform:translate(672px,16px)}45.15%{transform:translate(688px,96px)}45.82%{transform:translate(720px,96px)}46.49%,71.91%{transform:translate(720px,64px)}48.16%{transform:translate(752px,16px)}50.17%{transform:translate(816px,48px)}55.18%{transform:translate(576px,48px)}56.19%{transform:translate(576px,96px)}62.21%{transform:translate(288px,96px)}62.54%{transform:translate(288px,80px)}74.25%{transform:translate(832px,64px)}75.59%{transform:translate(832px,0)}78.93%{transform:translate(672px,0)}80.27%{transform:translate(704px,32px)}82.27%{transform:translate(736px,96px)}94.31%{transform:translate(160px,96px)}94.65%{transform:translate(160px,80px)}95.32%{transform:translate(128px,80px)}96.32%{transform:translate(128px,32px)}96.66%{transform:translate(112px,32px)}97.66%{transform:translate(112px,-16px)}}@keyframes s2{0%,99.67%{transform:translate(32px,-16px)}.67%{transform:translate(0,-16px)}1%{transform:translate(0,0)}5.35%{transform:translate(208px,0)}7.36%{transform:translate(208px,96px)}8.7%{transform:translate(272px,96px)}9.03%{transform:translate(272px,80px)}9.7%{transform:translate(304px,80px)}11.04%{transform:translate(304px,16px)}16.39%{transform:translate(560px,16px)}16.72%{transform:translate(560px,0)}17.39%{transform:translate(592px,0)}17.73%{transform:translate(592px,16px)}18.39%{transform:translate(624px,16px)}18.73%{transform:translate(624px,32px)}20.07%,41.47%,44.15%{transform:translate(688px,32px)}20.4%{transform:translate(688px,48px)}20.74%{transform:translate(672px,48px)}21.4%{transform:translate(672px,80px)}22.41%,71.91%{transform:translate(720px,80px)}23.41%{transform:translate(720px,32px)}25.08%{transform:translate(800px,32px)}25.42%,27.42%{transform:translate(800px,16px)}25.75%,49.83%{transform:translate(816px,16px)}26.09%{transform:translate(816px,0)}26.76%{transform:translate(784px,0)}27.09%{transform:translate(784px,16px)}28.43%,29.77%{transform:translate(800px,64px)}28.76%{transform:translate(816px,64px)}29.1%{transform:translate(816px,80px)}29.43%{transform:translate(800px,80px)}30.77%,47.49%{transform:translate(752px,64px)}31.44%{transform:translate(752px,96px)}31.77%{transform:translate(768px,96px)}33.11%{transform:translate(768px,32px)}33.78%,81.27%{transform:translate(736px,32px)}34.45%{transform:translate(736px,0)}35.12%,42.47%{transform:translate(704px,0)}35.45%{transform:translate(704px,-16px)}35.79%{transform:translate(720px,-16px)}37.12%{transform:translate(720px,48px)}38.46%{transform:translate(656px,48px)}39.46%{transform:translate(656px,96px)}39.8%{transform:translate(672px,96px)}41.14%,43.81%{transform:translate(672px,32px)}41.81%,43.14%{transform:translate(688px,16px)}42.14%,80.27%{transform:translate(704px,16px)}42.81%{transform:translate(688px,0)}43.48%,79.6%{transform:translate(672px,16px)}45.48%{transform:translate(688px,96px)}46.15%{transform:translate(720px,96px)}46.82%,72.24%{transform:translate(720px,64px)}48.49%{transform:translate(752px,16px)}50.5%{transform:translate(816px,48px)}55.52%{transform:translate(576px,48px)}56.52%{transform:translate(576px,96px)}62.54%{transform:translate(288px,96px)}62.88%{transform:translate(288px,80px)}74.58%{transform:translate(832px,64px)}75.92%{transform:translate(832px,0)}79.26%{transform:translate(672px,0)}80.6%{transform:translate(704px,32px)}82.61%{transform:translate(736px,96px)}94.65%{transform:translate(160px,96px)}94.98%{transform:translate(160px,80px)}95.65%{transform:translate(128px,80px)}96.66%{transform:translate(128px,32px)}96.99%{transform:translate(112px,32px)}97.99%{transform:translate(112px,-16px)}}@keyframes s3{0%,99.67%{transform:translate(48px,-16px)}1%{transform:translate(0,-16px)}1.34%{transform:translate(0,0)}5.69%{transform:translate(208px,0)}7.69%{transform:translate(208px,96px)}9.03%{transform:translate(272px,96px)}9.36%{transform:translate(272px,80px)}10.03%{transform:translate(304px,80px)}11.37%{transform:translate(304px,16px)}16.72%{transform:translate(560px,16px)}17.06%{transform:translate(560px,0)}17.73%{transform:translate(592px,0)}18.06%{transform:translate(592px,16px)}18.73%{transform:translate(624px,16px)}19.06%{transform:translate(624px,32px)}20.4%,41.81%,44.48%{transform:translate(688px,32px)}20.74%{transform:translate(688px,48px)}21.07%{transform:translate(672px,48px)}21.74%{transform:translate(672px,80px)}22.74%,72.24%{transform:translate(720px,80px)}23.75%{transform:translate(720px,32px)}25.42%{transform:translate(800px,32px)}25.75%,27.76%{transform:translate(800px,16px)}26.09%,50.17%{transform:translate(816px,16px)}26.42%{transform:translate(816px,0)}27.09%{transform:translate(784px,0)}27.42%{transform:translate(784px,16px)}28.76%,30.1%{transform:translate(800px,64px)}29.1%{transform:translate(816px,64px)}29.43%{transform:translate(816px,80px)}29.77%{transform:translate(800px,80px)}31.1%,47.83%{transform:translate(752px,64px)}31.77%{transform:translate(752px,96px)}32.11%{transform:translate(768px,96px)}33.44%{transform:translate(768px,32px)}34.11%,81.61%{transform:translate(736px,32px)}34.78%{transform:translate(736px,0)}35.45%,42.81%{transform:translate(704px,0)}35.79%{transform:translate(704px,-16px)}36.12%{transform:translate(720px,-16px)}37.46%{transform:translate(720px,48px)}38.8%{transform:translate(656px,48px)}39.8%{transform:translate(656px,96px)}40.13%{transform:translate(672px,96px)}41.47%,44.15%{transform:translate(672px,32px)}42.14%,43.48%{transform:translate(688px,16px)}42.47%,80.6%{transform:translate(704px,16px)}43.14%{transform:translate(688px,0)}43.81%,79.93%{transform:translate(672px,16px)}45.82%{transform:translate(688px,96px)}46.49%{transform:translate(720px,96px)}47.16%,72.58%{transform:translate(720px,64px)}48.83%{transform:translate(752px,16px)}50.84%{transform:translate(816px,48px)}55.85%{transform:translate(576px,48px)}56.86%{transform:translate(576px,96px)}62.88%{transform:translate(288px,96px)}63.21%{transform:translate(288px,80px)}74.92%{transform:translate(832px,64px)}76.25%{transform:translate(832px,0)}79.6%{transform:translate(672px,0)}80.94%{transform:translate(704px,32px)}82.94%{transform:translate(736px,96px)}94.98%{transform:translate(160px,96px)}95.32%{transform:translate(160px,80px)}95.99%{transform:translate(128px,80px)}96.99%{transform:translate(128px,32px)}97.32%{transform:translate(112px,32px)}98.33%{transform:translate(112px,-16px)}}:root{--cb:#1b1f230a;--cs:purple;--ce:#ebedf0;--c0:#ebedf0;--c1:#9be9a8;--c2:#40c463;--c3:#30a14e;--c4:#216e39}.c{shape-rendering:geometricPrecision;rx:2;ry:2;fill:var(--ce);stroke-width:1px;stroke:var(--cb);animation:none 29900ms linear infinite}.c.c0{fill:var(--c1);animation-name:c0}.c.c1{fill:var(--c2);animation-name:c1}.c.c2,.c.c3{fill:var(--c1);animation-name:c2}.c.c3{animation-name:c3}.c.c4{fill:var(--c2);animation-name:c4}.c.c5,.c.c6,.c.c7{fill:var(--c1);animation-name:c5}.c.c6,.c.c7{animation-name:c6}.c.c7{animation-name:c7}.c.c8{fill:var(--c4);animation-name:c8}.c.c9{fill:var(--c2);animation-name:c9}.c.ca,.c.cb,.c.cc{fill:var(--c1);animation-name:ca}.c.cb,.c.cc{animation-name:cb}.c.cc{animation-name:cc}.c.cd{fill:var(--c2);animation-name:cd}.c.ce,.c.cf,.c.cg{fill:var(--c1);animation-name:ce}.c.cf,.c.cg{animation-name:cf}.c.cg{animation-name:cg}.c.ch{fill:var(--c2);animation-name:ch}.c.ci{fill:var(--c1);animation-name:ci}.c.cj{fill:var(--c2);animation-name:cj}.c.ck{fill:var(--c4);animation-name:ck}.c.cl,.c.cm,.c.cn{fill:var(--c1);animation-name:cl}.c.cm,.c.cn{animation-name:cm}.c.cn{animation-name:cn}.c.co,.c.cp,.c.cq{fill:var(--c1);animation-name:co}.c.cp,.c.cq{animation-name:cp}.c.cq{animation-name:cq}.c.cr,.c.cs,.c.ct{fill:var(--c4);animation-name:cr}.c.cs,.c.ct{animation-name:cs}.c.ct{animation-name:ct}.c.cu{fill:var(--c2);animation-name:cu}.c.cv{fill:var(--c1);animation-name:cv}.c.cw{fill:var(--c2);animation-name:cw}.c.cx{fill:var(--c1);animation-name:cx}.c.c10,.c.cy,.c.cz{fill:var(--c1);animation-name:cy}.c.c10,.c.cz{animation-name:cz}.c.c10{animation-name:c10}.c.c11,.c.c12,.c.c13{fill:var(--c1);animation-name:c11}.c.c12,.c.c13{animation-name:c12}.c.c13{animation-name:c13}.c.c14,.c.c15,.c.c16{fill:var(--c1);animation-name:c14}.c.c15,.c.c16{animation-name:c15}.c.c16{animation-name:c16}.c.c17{fill:var(--c2);animation-name:c17}.c.c18{fill:var(--c1);animation-name:c18}.c.c19,.c.c1a{fill:var(--c3);animation-name:c19}.c.c1a{animation-name:c1a}.s,.u{animation:none linear 29900ms infinite}.u,.u.u0{transform-origin:0 0}.u{transform:scale(0,1)}.u.u0{fill:var(--c1);animation-name:u0}.u.u1{fill:var(--c2);animation-name:u1;transform-origin:559.3px 0}.u.u2{fill:var(--c3);animation-name:u2;transform-origin:721.7px 0}.u.u3{fill:var(--c4);animation-name:u3;transform-origin:757.8px 0}.s{shape-rendering:geometricPrecision;fill:var(--cs)}.s.s0{transform:translate(0,-16px);animation-name:s0}.s.s1{transform:translate(16px,-16px);animation-name:s1}.s.s2{transform:translate(32px,-16px);animation-name:s2}.s.s3{transform:translate(48px,-16px);animation-name:s3}</style><rect class="c" x="2" y="2" width="12" height="12"/><rect class="c" x="2" y="18" width="12" height="12"/><rect class="c" x="2" y="34" width="12" height="12"/><rect class="c" x="2" y="50" width="12" height="12"/><rect class="c" x="2" y="66" width="12" height="12"/><rect class="c" x="2" y="82" width="12" height="12"/><rect class="c" x="2" y="98" width="12" height="12"/><rect class="c" x="18" y="2" width="12" height="12"/><rect class="c" x="18" y="18" width="12" height="12"/><rect class="c" x="18" y="34" width="12" height="12"/><rect class="c" x="18" y="50" width="12" height="12"/><rect class="c" x="18" y="66" width="12" height="12"/><rect class="c" x="18" y="82" width="12" height="12"/><rect class="c" x="18" y="98" width="12" height="12"/><rect class="c" x="34" y="2" width="12" height="12"/><rect class="c" x="34" y="18" width="12" height="12"/><rect class="c" x="34" y="34" width="12" height="12"/><rect class="c" x="34" y="50" width="12" height="12"/><rect class="c" x="34" y="66" width="12" height="12"/><rect class="c" x="34" y="82" width="12" height="12"/><rect class="c" x="34" y="98" width="12" height="12"/><rect class="c" x="50" y="2" width="12" height="12"/><rect class="c" x="50" y="18" width="12" height="12"/><rect class="c" x="50" y="34" width="12" height="12"/><rect class="c" x="50" y="50" width="12" height="12"/><rect class="c" x="50" y="66" width="12" height="12"/><rect class="c" x="50" y="82" width="12" height="12"/><rect class="c" x="50" y="98" width="12" height="12"/><rect class="c" x="66" y="2" width="12" height="12"/><rect class="c" x="66" y="18" width="12" height="12"/><rect class="c" x="66" y="34" width="12" height="12"/><rect class="c" x="66" y="50" width="12" height="12"/><rect class="c" x="66" y="66" width="12" height="12"/><rect class="c" x="66" y="82" width="12" height="12"/><rect class="c" x="66" y="98" width="12" height="12"/><rect class="c" x="82" y="2" width="12" height="12"/><rect class="c" x="82" y="18" width="12" height="12"/><rect class="c" x="82" y="34" width="12" height="12"/><rect class="c" x="82" y="50" width="12" height="12"/><rect class="c" x="82" y="66" width="12" height="12"/><rect class="c" x="82" y="82" width="12" height="12"/><rect class="c" x="82" y="98" width="12" height="12"/><rect class="c" x="98" y="2" width="12" height="12"/><rect class="c" x="98" y="18" width="12" height="12"/><rect class="c" x="98" y="34" width="12" height="12"/><rect class="c" x="98" y="50" width="12" height="12"/><rect class="c" x="98" y="66" width="12" height="12"/><rect class="c" x="98" y="82" width="12" height="12"/><rect class="c" x="98" y="98" width="12" height="12"/><rect class="c" x="114" y="2" width="12" height="12"/><rect class="c" x="114" y="18" width="12" height="12"/><rect class="c" x="114" y="34" width="12" height="12"/><rect class="c" x="114" y="50" width="12" height="12"/><rect class="c" x="114" y="66" width="12" height="12"/><rect class="c" x="114" y="82" width="12" height="12"/><rect class="c" x="114" y="98" width="12" height="12"/><rect class="c" x="130" y="2" width="12" height="12"/><rect class="c" x="130" y="18" width="12" height="12"/><rect class="c" x="130" y="34" width="12" height="12"/><rect class="c" x="130" y="50" width="12" height="12"/><rect class="c" x="130" y="66" width="12" height="12"/><rect class="c" x="130" y="82" width="12" height="12"/><rect class="c" x="130" y="98" width="12" height="12"/><rect class="c" x="146" y="2" width="12" height="12"/><rect class="c" x="146" y="18" width="12" height="12"/><rect class="c" x="146" y="34" width="12" height="12"/><rect class="c" x="146" y="50" width="12" height="12"/><rect class="c" x="146" y="66" width="12" height="12"/><rect class="c" x="146" y="82" width="12" height="12"/><rect class="c" x="146" y="98" width="12" height="12"/><rect class="c" x="162" y="2" width="12" height="12"/><rect class="c" x="162" y="18" width="12" height="12"/><rect class="c" x="162" y="34" width="12" height="12"/><rect class="c" x="162" y="50" width="12" height="12"/><rect class="c" x="162" y="66" width="12" height="12"/><rect class="c" x="162" y="82" width="12" height="12"/><rect class="c" x="162" y="98" width="12" height="12"/><rect class="c" x="178" y="2" width="12" height="12"/><rect class="c" x="178" y="18" width="12" height="12"/><rect class="c" x="178" y="34" width="12" height="12"/><rect class="c" x="178" y="50" width="12" height="12"/><rect class="c" x="178" y="66" width="12" height="12"/><rect class="c" x="178" y="82" width="12" height="12"/><rect class="c" x="178" y="98" width="12" height="12"/><rect class="c" x="194" y="2" width="12" height="12"/><rect class="c" x="194" y="18" width="12" height="12"/><rect class="c" x="194" y="34" width="12" height="12"/><rect class="c" x="194" y="50" width="12" height="12"/><rect class="c" x="194" y="66" width="12" height="12"/><rect class="c" x="194" y="82" width="12" height="12"/><rect class="c" x="194" y="98" width="12" height="12"/><rect class="c" x="210" y="2" width="12" height="12"/><rect class="c" x="210" y="18" width="12" height="12"/><rect class="c" x="210" y="34" width="12" height="12"/><rect class="c" x="210" y="50" width="12" height="12"/><rect class="c" x="210" y="66" width="12" height="12"/><rect class="c" x="210" y="82" width="12" height="12"/><rect class="c c0" x="210" y="98" width="12" height="12"/><rect class="c" x="226" y="2" width="12" height="12"/><rect class="c" x="226" y="18" width="12" height="12"/><rect class="c" x="226" y="34" width="12" height="12"/><rect class="c" x="226" y="50" width="12" height="12"/><rect class="c" x="226" y="66" width="12" height="12"/><rect class="c" x="226" y="82" width="12" height="12"/><rect class="c" x="226" y="98" width="12" height="12"/><rect class="c" x="242" y="2" width="12" height="12"/><rect class="c" x="242" y="18" width="12" height="12"/><rect class="c" x="242" y="34" width="12" height="12"/><rect class="c" x="242" y="50" width="12" height="12"/><rect class="c" x="242" y="66" width="12" height="12"/><rect class="c" x="242" y="82" width="12" height="12"/><rect class="c" x="242" y="98" width="12" height="12"/><rect class="c" x="258" y="2" width="12" height="12"/><rect class="c" x="258" y="18" width="12" height="12"/><rect class="c" x="258" y="34" width="12" height="12"/><rect class="c" x="258" y="50" width="12" height="12"/><rect class="c" x="258" y="66" width="12" height="12"/><rect class="c" x="258" y="82" width="12" height="12"/><rect class="c" x="258" y="98" width="12" height="12"/><rect class="c" x="274" y="2" width="12" height="12"/><rect class="c" x="274" y="18" width="12" height="12"/><rect class="c" x="274" y="34" width="12" height="12"/><rect class="c" x="274" y="50" width="12" height="12"/><rect class="c" x="274" y="66" width="12" height="12"/><rect class="c" x="274" y="82" width="12" height="12"/><rect class="c" x="274" y="98" width="12" height="12"/><rect class="c" x="290" y="2" width="12" height="12"/><rect class="c" x="290" y="18" width="12" height="12"/><rect class="c" x="290" y="34" width="12" height="12"/><rect class="c" x="290" y="50" width="12" height="12"/><rect class="c" x="290" y="66" width="12" height="12"/><rect class="c" x="290" y="82" width="12" height="12"/><rect class="c c1" x="290" y="98" width="12" height="12"/><rect class="c" x="306" y="2" width="12" height="12"/><rect class="c c2" x="306" y="18" width="12" height="12"/><rect class="c" x="306" y="34" width="12" height="12"/><rect class="c" x="306" y="50" width="12" height="12"/><rect class="c" x="306" y="66" width="12" height="12"/><rect class="c" x="306" y="82" width="12" height="12"/><rect class="c" x="306" y="98" width="12" height="12"/><rect class="c" x="322" y="2" width="12" height="12"/><rect class="c" x="322" y="18" width="12" height="12"/><rect class="c" x="322" y="34" width="12" height="12"/><rect class="c" x="322" y="50" width="12" height="12"/><rect class="c" x="322" y="66" width="12" height="12"/><rect class="c" x="322" y="82" width="12" height="12"/><rect class="c" x="322" y="98" width="12" height="12"/><rect class="c" x="338" y="2" width="12" height="12"/><rect class="c" x="338" y="18" width="12" height="12"/><rect class="c" x="338" y="34" width="12" height="12"/><rect class="c" x="338" y="50" width="12" height="12"/><rect class="c" x="338" y="66" width="12" height="12"/><rect class="c" x="338" y="82" width="12" height="12"/><rect class="c" x="338" y="98" width="12" height="12"/><rect class="c" x="354" y="2" width="12" height="12"/><rect class="c" x="354" y="18" width="12" height="12"/><rect class="c" x="354" y="34" width="12" height="12"/><rect class="c" x="354" y="50" width="12" height="12"/><rect class="c" x="354" y="66" width="12" height="12"/><rect class="c" x="354" y="82" width="12" height="12"/><rect class="c" x="354" y="98" width="12" height="12"/><rect class="c" x="370" y="2" width="12" height="12"/><rect class="c" x="370" y="18" width="12" height="12"/><rect class="c" x="370" y="34" width="12" height="12"/><rect class="c" x="370" y="50" width="12" height="12"/><rect class="c" x="370" y="66" width="12" height="12"/><rect class="c" x="370" y="82" width="12" height="12"/><rect class="c" x="370" y="98" width="12" height="12"/><rect class="c" x="386" y="2" width="12" height="12"/><rect class="c" x="386" y="18" width="12" height="12"/><rect class="c" x="386" y="34" width="12" height="12"/><rect class="c" x="386" y="50" width="12" height="12"/><rect class="c" x="386" y="66" width="12" height="12"/><rect class="c" x="386" y="82" width="12" height="12"/><rect class="c" x="386" y="98" width="12" height="12"/><rect class="c" x="402" y="2" width="12" height="12"/><rect class="c" x="402" y="18" width="12" height="12"/><rect class="c" x="402" y="34" width="12" height="12"/><rect class="c" x="402" y="50" width="12" height="12"/><rect class="c" x="402" y="66" width="12" height="12"/><rect class="c" x="402" y="82" width="12" height="12"/><rect class="c" x="402" y="98" width="12" height="12"/><rect class="c" x="418" y="2" width="12" height="12"/><rect class="c" x="418" y="18" width="12" height="12"/><rect class="c" x="418" y="34" width="12" height="12"/><rect class="c" x="418" y="50" width="12" height="12"/><rect class="c" x="418" y="66" width="12" height="12"/><rect class="c" x="418" y="82" width="12" height="12"/><rect class="c" x="418" y="98" width="12" height="12"/><rect class="c" x="434" y="2" width="12" height="12"/><rect class="c" x="434" y="18" width="12" height="12"/><rect class="c" x="434" y="34" width="12" height="12"/><rect class="c" x="434" y="50" width="12" height="12"/><rect class="c" x="434" y="66" width="12" height="12"/><rect class="c" x="434" y="82" width="12" height="12"/><rect class="c" x="434" y="98" width="12" height="12"/><rect class="c" x="450" y="2" width="12" height="12"/><rect class="c" x="450" y="18" width="12" height="12"/><rect class="c" x="450" y="34" width="12" height="12"/><rect class="c" x="450" y="50" width="12" height="12"/><rect class="c" x="450" y="66" width="12" height="12"/><rect class="c" x="450" y="82" width="12" height="12"/><rect class="c" x="450" y="98" width="12" height="12"/><rect class="c" x="466" y="2" width="12" height="12"/><rect class="c" x="466" y="18" width="12" height="12"/><rect class="c" x="466" y="34" width="12" height="12"/><rect class="c" x="466" y="50" width="12" height="12"/><rect class="c" x="466" y="66" width="12" height="12"/><rect class="c" x="466" y="82" width="12" height="12"/><rect class="c" x="466" y="98" width="12" height="12"/><rect class="c" x="482" y="2" width="12" height="12"/><rect class="c" x="482" y="18" width="12" height="12"/><rect class="c" x="482" y="34" width="12" height="12"/><rect class="c" x="482" y="50" width="12" height="12"/><rect class="c" x="482" y="66" width="12" height="12"/><rect class="c" x="482" y="82" width="12" height="12"/><rect class="c" x="482" y="98" width="12" height="12"/><rect class="c" x="498" y="2" width="12" height="12"/><rect class="c" x="498" y="18" width="12" height="12"/><rect class="c" x="498" y="34" width="12" height="12"/><rect class="c" x="498" y="50" width="12" height="12"/><rect class="c" x="498" y="66" width="12" height="12"/><rect class="c" x="498" y="82" width="12" height="12"/><rect class="c" x="498" y="98" width="12" height="12"/><rect class="c" x="514" y="2" width="12" height="12"/><rect class="c" x="514" y="18" width="12" height="12"/><rect class="c" x="514" y="34" width="12" height="12"/><rect class="c" x="514" y="50" width="12" height="12"/><rect class="c" x="514" y="66" width="12" height="12"/><rect class="c" x="514" y="82" width="12" height="12"/><rect class="c" x="514" y="98" width="12" height="12"/><rect class="c" x="530" y="2" width="12" height="12"/><rect class="c" x="530" y="18" width="12" height="12"/><rect class="c" x="530" y="34" width="12" height="12"/><rect class="c" x="530" y="50" width="12" height="12"/><rect class="c" x="530" y="66" width="12" height="12"/><rect class="c" x="530" y="82" width="12" height="12"/><rect class="c" x="530" y="98" width="12" height="12"/><rect class="c" x="546" y="2" width="12" height="12"/><rect class="c" x="546" y="18" width="12" height="12"/><rect class="c" x="546" y="34" width="12" height="12"/><rect class="c" x="546" y="50" width="12" height="12"/><rect class="c" x="546" y="66" width="12" height="12"/><rect class="c" x="546" y="82" width="12" height="12"/><rect class="c" x="546" y="98" width="12" height="12"/><rect class="c c3" x="562" y="2" width="12" height="12"/><rect class="c" x="562" y="18" width="12" height="12"/><rect class="c" x="562" y="34" width="12" height="12"/><rect class="c" x="562" y="50" width="12" height="12"/><rect class="c" x="562" y="66" width="12" height="12"/><rect class="c" x="562" y="82" width="12" height="12"/><rect class="c" x="562" y="98" width="12" height="12"/><rect class="c" x="578" y="2" width="12" height="12"/><rect class="c" x="578" y="18" width="12" height="12"/><rect class="c" x="578" y="34" width="12" height="12"/><rect class="c" x="578" y="50" width="12" height="12"/><rect class="c" x="578" y="66" width="12" height="12"/><rect class="c" x="578" y="82" width="12" height="12"/><rect class="c c4" x="578" y="98" width="12" height="12"/><rect class="c" x="594" y="2" width="12" height="12"/><rect class="c c5" x="594" y="18" width="12" height="12"/><rect class="c" x="594" y="34" width="12" height="12"/><rect class="c" x="594" y="50" width="12" height="12"/><rect class="c" x="594" y="66" width="12" height="12"/><rect class="c" x="594" y="82" width="12" height="12"/><rect class="c" x="594" y="98" width="12" height="12"/><rect class="c" x="610" y="2" width="12" height="12"/><rect class="c" x="610" y="18" width="12" height="12"/><rect class="c" x="610" y="34" width="12" height="12"/><rect class="c" x="610" y="50" width="12" height="12"/><rect class="c" x="610" y="66" width="12" height="12"/><rect class="c" x="610" y="82" width="12" height="12"/><rect class="c" x="610" y="98" width="12" height="12"/><rect class="c" x="626" y="2" width="12" height="12"/><rect class="c" x="626" y="18" width="12" height="12"/><rect class="c c6" x="626" y="34" width="12" height="12"/><rect class="c" x="626" y="50" width="12" height="12"/><rect class="c" x="626" y="66" width="12" height="12"/><rect class="c" x="626" y="82" width="12" height="12"/><rect class="c" x="626" y="98" width="12" height="12"/><rect class="c" x="642" y="2" width="12" height="12"/><rect class="c" x="642" y="18" width="12" height="12"/><rect class="c" x="642" y="34" width="12" height="12"/><rect class="c" x="642" y="50" width="12" height="12"/><rect class="c" x="642" y="66" width="12" height="12"/><rect class="c" x="642" y="82" width="12" height="12"/><rect class="c" x="642" y="98" width="12" height="12"/><rect class="c" x="658" y="2" width="12" height="12"/><rect class="c" x="658" y="18" width="12" height="12"/><rect class="c" x="658" y="34" width="12" height="12"/><rect class="c" x="658" y="50" width="12" height="12"/><rect class="c" x="658" y="66" width="12" height="12"/><rect class="c" x="658" y="82" width="12" height="12"/><rect class="c c7" x="658" y="98" width="12" height="12"/><rect class="c c8" x="674" y="2" width="12" height="12"/><rect class="c c9" x="674" y="18" width="12" height="12"/><rect class="c ca" x="674" y="34" width="12" height="12"/><rect class="c cb" x="674" y="50" width="12" height="12"/><rect class="c" x="674" y="66" width="12" height="12"/><rect class="c cc" x="674" y="82" width="12" height="12"/><rect class="c" x="674" y="98" width="12" height="12"/><rect class="c cd" x="690" y="2" width="12" height="12"/><rect class="c ce" x="690" y="18" width="12" height="12"/><rect class="c cf" x="690" y="34" width="12" height="12"/><rect class="c" x="690" y="50" width="12" height="12"/><rect class="c" x="690" y="66" width="12" height="12"/><rect class="c cg" x="690" y="82" width="12" height="12"/><rect class="c ch" x="690" y="98" width="12" height="12"/><rect class="c ci" x="706" y="2" width="12" height="12"/><rect class="c cj" x="706" y="18" width="12" height="12"/><rect class="c ck" x="706" y="34" width="12" height="12"/><rect class="c" x="706" y="50" width="12" height="12"/><rect class="c" x="706" y="66" width="12" height="12"/><rect class="c" x="706" y="82" width="12" height="12"/><rect class="c" x="706" y="98" width="12" height="12"/><rect class="c" x="722" y="2" width="12" height="12"/><rect class="c cl" x="722" y="18" width="12" height="12"/><rect class="c cm" x="722" y="34" width="12" height="12"/><rect class="c cn" x="722" y="50" width="12" height="12"/><rect class="c" x="722" y="66" width="12" height="12"/><rect class="c" x="722" y="82" width="12" height="12"/><rect class="c" x="722" y="98" width="12" height="12"/><rect class="c co" x="738" y="2" width="12" height="12"/><rect class="c cp" x="738" y="18" width="12" height="12"/><rect class="c cq" x="738" y="34" width="12" height="12"/><rect class="c" x="738" y="50" width="12" height="12"/><rect class="c" x="738" y="66" width="12" height="12"/><rect class="c cr" x="738" y="82" width="12" height="12"/><rect class="c cs" x="738" y="98" width="12" height="12"/><rect class="c ct" x="754" y="2" width="12" height="12"/><rect class="c cu" x="754" y="18" width="12" height="12"/><rect class="c cv" x="754" y="34" width="12" height="12"/><rect class="c cw" x="754" y="50" width="12" height="12"/><rect class="c cx" x="754" y="66" width="12" height="12"/><rect class="c" x="754" y="82" width="12" height="12"/><rect class="c cy" x="754" y="98" width="12" height="12"/><rect class="c" x="770" y="2" width="12" height="12"/><rect class="c" x="770" y="18" width="12" height="12"/><rect class="c" x="770" y="34" width="12" height="12"/><rect class="c" x="770" y="50" width="12" height="12"/><rect class="c" x="770" y="66" width="12" height="12"/><rect class="c" x="770" y="82" width="12" height="12"/><rect class="c" x="770" y="98" width="12" height="12"/><rect class="c cz" x="786" y="2" width="12" height="12"/><rect class="c" x="786" y="18" width="12" height="12"/><rect class="c" x="786" y="34" width="12" height="12"/><rect class="c" x="786" y="50" width="12" height="12"/><rect class="c c10" x="786" y="66" width="12" height="12"/><rect class="c" x="786" y="82" width="12" height="12"/><rect class="c" x="786" y="98" width="12" height="12"/><rect class="c c11" x="802" y="2" width="12" height="12"/><rect class="c c12" x="802" y="18" width="12" height="12"/><rect class="c c13" x="802" y="34" width="12" height="12"/><rect class="c c14" x="802" y="50" width="12" height="12"/><rect class="c c15" x="802" y="66" width="12" height="12"/><rect class="c" x="802" y="82" width="12" height="12"/><rect class="c" x="802" y="98" width="12" height="12"/><rect class="c" x="818" y="2" width="12" height="12"/><rect class="c c16" x="818" y="18" width="12" height="12"/><rect class="c" x="818" y="34" width="12" height="12"/><rect class="c c17" x="818" y="50" width="12" height="12"/><rect class="c c18" x="818" y="66" width="12" height="12"/><rect class="c" x="818" y="82" width="12" height="12"/><rect class="c" x="818" y="98" width="12" height="12"/><rect class="c c19" x="834" y="2" width="12" height="12"/><rect class="c c1a" x="834" y="18" width="12" height="12"/><rect class="u u0" height="12" width="559.9" x="0.0" y="144"/><rect class="u u1" height="12" width="163.0" x="559.3" y="144"/><rect class="u u2" height="12" width="36.7" x="721.7" y="144"/><rect class="u u3" height="12" width="90.8" x="757.8" y="144"/><rect class="s s0" x="0.8" y="0.8" width="14.4" height="14.4" rx="4.5" ry="4.5"/><rect class="s s1" x="1.8" y="1.8" width="12.3" height="12.3" rx="4.1" ry="4.1"/><rect class="s s2" x="2.6" y="2.6" width="10.8" height="10.8" rx="3.6" ry="3.6"/><rect class="s s3" x="3.0" y="3.0" width="9.9" height="9.9" rx="3.3" ry="3.3"/></svg>